<svg width="25" height="24" viewBox="0 0 25 24" fill="none" xmlns="http://www.w3.org/2000/svg">
<path d="M21.75 22H3.75C3.34 22 3 21.66 3 21.25C3 20.84 3.34 20.5 3.75 20.5H21.75C22.16 20.5 22.5 20.84 22.5 21.25C22.5 21.66 22.16 22 21.75 22Z" fill="#3E3B5B"/>
<path d="M19.7706 3.47991C17.8306 1.53991 15.9306 1.48991 13.9406 3.47991L12.7306 4.68991C12.6306 4.78991 12.5906 4.94991 12.6306 5.08991C13.3906 7.73991 15.5106 9.85991 18.1606 10.6199C18.2006 10.6299 18.2406 10.6399 18.2806 10.6399C18.3906 10.6399 18.4906 10.5999 18.5706 10.5199L19.7706 9.30991C20.7606 8.32991 21.2406 7.37991 21.2406 6.41991C21.2506 5.42991 20.7706 4.46991 19.7706 3.47991Z" fill="#3E3B5B"/>
<path d="M16.3603 11.53C16.0703 11.39 15.7903 11.25 15.5203 11.09C15.3003 10.96 15.0903 10.82 14.8803 10.67C14.7103 10.56 14.5103 10.4 14.3203 10.24C14.3003 10.23 14.2303 10.17 14.1503 10.09C13.8203 9.81005 13.4503 9.45005 13.1203 9.05005C13.0903 9.03005 13.0403 8.96005 12.9703 8.87005C12.8703 8.75005 12.7003 8.55005 12.5503 8.32005C12.4303 8.17005 12.2903 7.95005 12.1603 7.73005C12.0003 7.46005 11.8603 7.19005 11.7203 6.91005C11.6991 6.86465 11.6786 6.81949 11.6588 6.77458C11.5112 6.44127 11.0765 6.34382 10.8188 6.60158L5.09032 12.33C4.96032 12.46 4.84032 12.71 4.81032 12.88L4.27032 16.71C4.17032 17.39 4.36032 18.03 4.78032 18.46C5.14032 18.81 5.64032 19 6.18032 19C6.30032 19 6.42032 18.99 6.54032 18.97L10.3803 18.43C10.5603 18.4 10.8103 18.28 10.9303 18.15L16.6516 12.4287C16.9112 12.1692 16.8133 11.7237 16.4757 11.5797C16.4377 11.5634 16.3992 11.5469 16.3603 11.53Z" fill="#3E3B5B"/>
</svg>
